# xmcd
#
# Track frame offsets:
#	150
#	22068
#	42474
#	61412
#	85076
#	103202
#	126078
#	146964
#
# Disc length: 2283 seconds
#
# Revision: 0
# Processed by: cddbd v1.5.2PL0 Copyright (c) Steve Scherf et al.
# Submitted via: EasyCDDAExtractor 16.1.0.1
#
DISCID=7508e908
DTITLE=Chiktay - Dézolé
DYEAR=1991
DGENRE=Zouk
TTITLE0=Dézolé
TTITLE1=Lady Zouk
TTITLE2=Toujou Lov
TTITLE3=Yo O Kouran
TTITLE4=O Merilo
TTITLE5=Dam Jeanne
TTITLE6=On Ti Bo
TTITLE7=La Pli Si Tol
EXTD=
EXTT0=
EXTT1=
EXTT2=
EXTT3=
EXTT4=
EXTT5=
EXTT6=
EXTT7=
PLAYORDER=
